<svg width="24" height="24" viewBox="0 0 24 24" fill="none" xmlns="http://www.w3.org/2000/svg">
<g clip-path="url(#clip0)">
<path d="M7.07709 23.55C6.60409 23.234 6.18409 22.847 5.83309 22.4C5.45009 21.937 5.09509 21.45 4.76909 20.946C4.00309 19.826 3.40409 18.601 2.98909 17.31C2.48909 15.808 2.24609 14.37 2.24609 12.963C2.24609 11.393 2.58609 10.023 3.24809 8.87301C3.73809 7.97301 4.46809 7.22001 5.34809 6.69101C6.19809 6.16101 7.18809 5.87101 8.18809 5.85101C8.53809 5.85101 8.91809 5.90101 9.31809 6.00101C9.60809 6.08101 9.95809 6.21101 10.3881 6.37101C10.9381 6.58101 11.2381 6.71101 11.3381 6.74101C11.6581 6.86101 11.9281 6.91101 12.1381 6.91101C12.2981 6.91101 12.5281 6.86101 12.7831 6.78101C12.9281 6.73101 13.2031 6.64101 13.5931 6.47101C13.9791 6.33101 14.2851 6.21101 14.5281 6.12101C14.8981 6.01101 15.2561 5.91101 15.5781 5.86101C15.9681 5.80101 16.3551 5.78101 16.7261 5.81101C17.4361 5.86101 18.0861 6.01101 18.6661 6.23101C19.6861 6.64101 20.5091 7.28101 21.1231 8.19101C20.8631 8.35101 20.6231 8.53701 20.3981 8.74101C19.9111 9.17101 19.4981 9.68101 19.1681 10.246C18.7381 11.016 18.5181 11.886 18.5241 12.766C18.5391 13.849 18.8141 14.801 19.3641 15.626C19.7511 16.226 20.2681 16.74 20.8981 17.162C21.2081 17.372 21.4801 17.517 21.7381 17.612C21.6181 17.987 21.4861 18.352 21.3331 18.712C20.9861 19.519 20.5731 20.292 20.0831 21.022C19.6511 21.652 19.3111 22.122 19.0531 22.432C18.6511 22.912 18.2631 23.272 17.8731 23.529C17.4431 23.814 16.9381 23.965 16.4211 23.965C16.0711 23.98 15.7211 23.935 15.3871 23.838C15.0971 23.743 14.8111 23.636 14.5311 23.515C14.2381 23.381 13.9351 23.267 13.6261 23.175C13.2461 23.075 12.8561 23.027 12.4621 23.028C12.0621 23.028 11.6721 23.078 11.3021 23.173C10.9921 23.261 10.6921 23.369 10.3951 23.498C9.97509 23.673 9.70009 23.788 9.54009 23.838C9.21609 23.934 8.88409 23.992 8.55009 24.013C8.03009 24.013 7.54609 23.863 7.06409 23.563L7.07709 23.55ZM13.9311 5.09001C13.2511 5.43001 12.6051 5.57401 11.9581 5.52601C11.8581 4.88001 11.9581 4.21601 12.2281 3.48901C12.4681 2.86901 12.7881 2.30901 13.2281 1.80901C13.6881 1.28901 14.2381 0.859008 14.8581 0.549008C15.5181 0.209008 16.1481 0.0290082 16.7481 -0.000991821C16.8281 0.679008 16.7481 1.34901 16.4981 2.06901C16.2701 2.70901 15.9301 3.29901 15.4981 3.82901C15.0631 4.34901 14.5231 4.77901 13.9121 5.08901L13.9311 5.09001Z" fill="#5A5CF8"/>
</g>
<defs>
<clipPath id="clip0">
<rect width="24" height="24" fill="white"/>
</clipPath>
</defs>
</svg>
