<svg xmlns="http://www.w3.org/2000/svg" viewBox="0 0 42.24 33.43"><defs><style>.cls-1,.cls-2{fill:#9340fb;stroke:#9340fb;stroke-miterlimit:10;}.cls-2{stroke-width:4px;}</style></defs><g id="Calque_2" data-name="Calque 2"><g id="Calque_1-2" data-name="Calque 1"><path class="cls-1" d="M28.14,27.27a13.54,13.54,0,0,1-7.2,4,13.37,13.37,0,0,1-12.3-3.9,9,9,0,0,1-1.5-1.9l15.3-12.8-16.8,9.6a7.49,7.49,0,0,1-.4-1.6,13.54,13.54,0,0,1,5.7-13.8c.5-.3,1-.6,1.6-.9a10.37,10.37,0,0,1,1-.4,16.82,16.82,0,0,1,2.4-.7c.5-.1.9-.1,1.4-.2,1.6-.5,4.5-1,9.6-1,10,0,13.5-1.5,14.7-3.1C42.64-.83,36,20.77,28.14,27.27Z"/><line class="cls-2" x1="1.24" y1="31.87" x2="16.34" y2="19.87"/></g></g></svg>