<svg width="24" height="24" viewBox="0 0 24 24" fill="none" xmlns="http://www.w3.org/2000/svg">
<path d="M12.5031 0C12.3481 0 12.1881 0.008 12.0231 0.021C7.79707 0.354 8.91807 4.828 8.85307 6.319C8.77707 7.411 8.55307 8.272 7.80307 9.339C6.91807 10.39 5.67607 12.089 5.08707 13.86C4.80907 14.692 4.67707 15.544 4.80007 16.349C4.75446 16.3859 4.717 16.4319 4.69007 16.484C4.43007 16.752 4.24007 17.084 4.02707 17.323C3.82807 17.522 3.54207 17.59 3.23007 17.723C2.91707 17.859 2.57207 17.992 2.36607 18.403C2.27607 18.592 2.23007 18.797 2.23407 19.005C2.23407 19.204 2.26107 19.405 2.28907 19.541C2.34707 19.94 2.40507 20.269 2.32907 20.511C2.08007 21.191 2.04907 21.656 2.22307 21.995C2.39707 22.329 2.75807 22.465 3.16307 22.596C3.97307 22.796 5.07307 22.731 5.93707 23.196C6.86307 23.662 7.80307 23.866 8.55307 23.666C9.07907 23.55 9.52307 23.202 9.76107 22.72C10.3481 22.717 10.9911 22.451 12.0211 22.386C12.7201 22.328 13.5951 22.653 14.5981 22.586C14.6231 22.72 14.6611 22.784 14.7121 22.919L14.7151 22.922C15.1061 23.7 15.8281 24.054 16.5991 23.993C17.3701 23.933 18.1911 23.457 18.8561 22.687C19.4871 21.922 20.5391 21.603 21.2341 21.184C21.5821 20.985 21.8631 20.715 21.8831 20.331C21.9061 19.931 21.6831 19.52 21.1691 18.955V18.858L21.1661 18.855C20.9961 18.655 20.9161 18.32 20.8281 17.929C20.7431 17.528 20.6461 17.143 20.3361 16.883H20.3331C20.2741 16.829 20.2101 16.816 20.1451 16.748C20.0892 16.709 20.0232 16.6867 19.9551 16.684C20.3861 15.406 20.2191 14.134 19.7821 12.99C19.2491 11.58 18.3171 10.352 17.6071 9.507C16.8111 8.502 16.0311 7.55 16.0471 6.139C16.0731 3.987 16.2831 0.006 12.5031 0V0ZM13.0321 3.405H13.0451C13.2581 3.405 13.4411 3.467 13.6291 3.603C13.8191 3.738 13.9591 3.935 14.0671 4.136C14.1721 4.395 14.2251 4.595 14.2331 4.86C14.2331 4.84 14.2391 4.82 14.2391 4.8V4.905C14.2369 4.89819 14.2355 4.89114 14.2351 4.884L14.2311 4.86C14.2291 5.10303 14.178 5.34315 14.0811 5.566C14.0344 5.69138 13.9618 5.80552 13.8681 5.901C13.8397 5.885 13.8103 5.87097 13.7801 5.859C13.6761 5.814 13.5821 5.795 13.4961 5.726C13.4248 5.69761 13.3512 5.67553 13.2761 5.66C13.3261 5.6 13.4221 5.527 13.4591 5.462C13.5121 5.334 13.5411 5.198 13.5471 5.06V5.04C13.5493 4.90419 13.5287 4.76896 13.4861 4.64C13.4411 4.506 13.3851 4.44 13.3031 4.307C13.2191 4.241 13.1361 4.175 13.0361 4.175H13.0201C12.9271 4.175 12.8441 4.205 12.7581 4.307C12.6631 4.39962 12.5927 4.51439 12.5531 4.641C12.5 4.76806 12.4695 4.90344 12.4631 5.041V5.06C12.4651 5.149 12.4711 5.239 12.4831 5.327C12.2901 5.26 12.0451 5.192 11.8761 5.125C11.866 5.05876 11.86 4.99197 11.8581 4.925V4.905C11.8502 4.64102 11.9015 4.37862 12.0081 4.137C12.0901 3.917 12.2401 3.731 12.4381 3.604C12.609 3.47444 12.8176 3.40421 13.0321 3.404V3.405ZM10.0701 3.464H10.1061C10.2481 3.464 10.3761 3.512 10.5051 3.599C10.6511 3.728 10.7691 3.887 10.8491 4.064C10.9391 4.263 10.9891 4.464 11.0021 4.731V4.735C11.0091 4.869 11.0081 4.935 11.0001 5.001V5.081C10.9701 5.088 10.9441 5.099 10.9171 5.105C10.7651 5.16 10.6431 5.24 10.5241 5.305C10.5361 5.215 10.5371 5.125 10.5271 5.038V5.023C10.5151 4.89 10.4871 4.823 10.4451 4.69C10.4139 4.58808 10.3567 4.49606 10.2791 4.423C10.2544 4.40059 10.2255 4.38337 10.1941 4.37238C10.1626 4.36138 10.1293 4.35683 10.0961 4.359H10.0751C10.0041 4.365 9.94507 4.399 9.88907 4.491C9.82528 4.56842 9.7838 4.66177 9.76907 4.761C9.74204 4.86879 9.73426 4.9805 9.74607 5.091V5.106C9.75807 5.241 9.78307 5.306 9.82607 5.44C9.87207 5.574 9.92407 5.64 9.99207 5.708C10.0021 5.717 10.0121 5.726 10.0261 5.732C9.95607 5.789 9.90907 5.802 9.85007 5.868C9.81266 5.90108 9.76766 5.92444 9.71907 5.936C9.61512 5.81083 9.52306 5.67625 9.44407 5.534C9.34953 5.32386 9.29688 5.0973 9.28907 4.867C9.27251 4.64126 9.29968 4.41445 9.36907 4.199C9.42415 4.00252 9.52065 3.8201 9.65207 3.664C9.78007 3.531 9.91207 3.464 10.0701 3.464ZM11.4401 5.17C11.7721 5.17 12.1731 5.235 12.6561 5.569C12.9491 5.769 13.1791 5.838 13.7081 6.037H13.7111C13.9661 6.173 14.1161 6.303 14.1891 6.436V6.305C14.225 6.37771 14.2449 6.45724 14.2477 6.53828C14.2505 6.61932 14.2359 6.70001 14.2051 6.775C14.0821 7.085 13.6891 7.418 13.1421 7.617V7.619C12.8741 7.754 12.6411 7.952 12.3671 8.084C12.0911 8.219 11.7791 8.376 11.3551 8.351C11.2028 8.35889 11.0504 8.3361 10.9071 8.284C10.7963 8.22374 10.6888 8.15765 10.5851 8.086C10.3901 7.951 10.2221 7.754 9.97307 7.621V7.616H9.96807C9.56807 7.37 9.35207 7.104 9.28207 6.906C9.21207 6.638 9.27707 6.436 9.47507 6.306C9.69907 6.171 9.85507 6.035 9.95807 5.97C10.0621 5.896 10.1011 5.868 10.1341 5.839H10.1361V5.836C10.3051 5.634 10.5721 5.366 10.9751 5.235C11.1141 5.199 11.2691 5.17 11.4411 5.17H11.4401ZM14.2401 7.312C14.5981 8.729 15.4361 10.787 15.9751 11.785C16.2611 12.319 16.8301 13.444 17.0771 14.809C17.2331 14.804 17.4071 14.827 17.5901 14.873C18.2361 13.202 17.0441 11.406 16.5011 10.907C16.2811 10.707 16.2691 10.572 16.3781 10.572C16.9681 11.106 17.7431 12.144 18.0241 13.329C18.1541 13.864 18.1841 14.433 18.0451 14.999C18.1121 15.027 18.1801 15.059 18.2501 15.066C19.2821 15.6 19.6631 16.004 19.4801 16.603V16.56C19.4201 16.557 19.3601 16.56 19.3001 16.56H19.2841C19.4351 16.093 19.1021 15.735 18.2191 15.336C17.3041 14.936 16.5731 15 16.4491 15.801C16.4411 15.844 16.4361 15.867 16.4311 15.936C16.3631 15.959 16.2921 15.989 16.2221 16C15.7921 16.268 15.5601 16.669 15.4291 17.187C15.2991 17.72 15.2591 18.343 15.2241 19.056V19.059C15.2041 19.393 15.0541 19.897 14.9051 20.409C13.4051 21.481 11.3251 21.947 9.55707 20.743C9.44612 20.5491 9.31105 20.37 9.15507 20.21C9.08054 20.0859 8.98785 19.9736 8.88007 19.877C9.06207 19.877 9.21807 19.847 9.34507 19.81C9.48887 19.7433 9.60136 19.6236 9.65907 19.476C9.76707 19.209 9.65907 18.779 9.31407 18.313C8.96907 17.846 8.38307 17.318 7.52607 16.792C6.89607 16.392 6.54007 15.922 6.37607 15.396C6.21107 14.862 6.23307 14.311 6.36107 13.751C6.60607 12.681 7.23407 11.641 7.63507 10.988C7.74207 10.923 7.67207 11.123 7.22707 11.962C6.83107 12.713 6.08707 14.459 7.10507 15.816C7.14353 14.8259 7.3628 13.8512 7.75207 12.94C8.31607 11.662 9.49507 9.436 9.58807 7.672C9.63607 7.708 9.80507 7.807 9.87707 7.874C10.0951 8.007 10.2571 8.207 10.4671 8.339C10.6771 8.54 10.9441 8.674 11.3431 8.674C11.3821 8.677 11.4181 8.68 11.4531 8.68C11.8651 8.68 12.1831 8.546 12.4501 8.412C12.7401 8.278 12.9701 8.078 13.1901 8.012H13.1951C13.6621 7.877 14.0301 7.61 14.2391 7.312H14.2401ZM16.4251 16.27C16.4621 16.87 16.7681 17.515 17.3071 17.647C17.8951 17.781 18.7411 17.314 19.0981 16.882L19.3091 16.872C19.6241 16.865 19.8861 16.882 20.1561 17.14L20.1591 17.143C20.3671 17.342 20.4641 17.673 20.5501 18.019C20.6351 18.419 20.7041 18.799 20.9591 19.085C21.4451 19.612 21.6041 19.991 21.5951 20.225L21.5981 20.218V20.236L21.5951 20.224C21.5801 20.486 21.4101 20.62 21.0971 20.819C20.4671 21.22 19.3511 21.531 18.6401 22.389C18.0221 23.126 17.2701 23.529 16.6041 23.58C15.9401 23.633 15.3671 23.38 15.0301 22.682L15.0251 22.679C14.8151 22.279 14.9051 21.654 15.0811 20.989C15.2571 20.321 15.5091 19.645 15.5441 19.092C15.5811 18.378 15.6201 17.757 15.7391 17.278C15.8591 16.813 16.0471 16.481 16.3801 16.294L16.4251 16.272V16.27ZM5.61107 16.319H5.62107C5.67407 16.319 5.72607 16.324 5.77807 16.333C6.15407 16.388 6.48407 16.666 6.80107 17.085L7.71107 18.749L7.71407 18.752C7.95707 19.285 8.46807 19.816 8.90307 20.389C9.33707 20.987 9.67307 21.52 9.63207 21.959V21.965C9.57507 22.709 9.15207 23.113 8.50707 23.259C7.86207 23.394 6.98707 23.261 6.11207 22.795C5.14407 22.259 3.99407 22.326 3.25507 22.193C2.88607 22.127 2.64507 21.993 2.53207 21.793C2.42207 21.593 2.41907 21.191 2.65507 20.563V20.559L2.65707 20.556C2.77407 20.222 2.68707 19.804 2.63007 19.438C2.57507 19.037 2.54707 18.728 2.67307 18.498C2.83307 18.164 3.06907 18.098 3.36307 17.965C3.65707 17.83 4.00307 17.763 4.27807 17.495H4.28007V17.493C4.53607 17.225 4.72507 16.892 4.94807 16.655C5.13807 16.454 5.32807 16.319 5.61107 16.319ZM12.7701 7.245C12.3351 7.446 11.8251 7.78 11.2821 7.78C10.7401 7.78 10.3121 7.513 10.0021 7.314C9.84807 7.18 9.72207 7.046 9.62907 6.979C9.46507 6.845 9.48507 6.646 9.55507 6.646C9.66407 6.662 9.68407 6.78 9.75407 6.846C9.85007 6.912 9.96907 7.046 10.1141 7.179C10.4061 7.379 10.7941 7.646 11.2811 7.646C11.7661 7.646 12.3341 7.379 12.6791 7.18C12.8741 7.045 13.1241 6.846 13.3271 6.713C13.4831 6.577 13.4761 6.446 13.6061 6.446C13.7341 6.462 13.6401 6.58 13.4591 6.778C13.2373 6.94575 13.007 7.10195 12.7691 7.246L12.7701 7.245ZM11.6881 5.662V5.64C11.6821 5.62 11.7011 5.598 11.7171 5.59C11.7911 5.547 11.8971 5.563 11.9771 5.594C12.0401 5.594 12.1371 5.661 12.1271 5.729C12.1211 5.778 12.0421 5.795 11.9921 5.795C11.9371 5.795 11.9001 5.752 11.8511 5.727C11.7991 5.709 11.7051 5.719 11.6881 5.662ZM11.1371 5.662C11.1171 5.72 11.0241 5.711 10.9711 5.728C10.9241 5.753 10.8851 5.796 10.8311 5.796C10.7811 5.796 10.7011 5.776 10.6951 5.728C10.6851 5.662 10.7831 5.595 10.8451 5.595C10.9251 5.564 11.0291 5.548 11.1041 5.59C11.1231 5.599 11.1401 5.62 11.1341 5.64V5.66H11.1371V5.662Z" fill="#5A5CF8"/>
</svg>
