<svg xmlns="http://www.w3.org/2000/svg" viewBox="0 0 754.8 884.3"><g id="Calque_2" data-name="Calque 2"><g id="Calque_1-2" data-name="Calque 1"><path d="M377.2,570.1a75.41,75.41,0,0,0-75.3,75.3,31.8,31.8,0,0,0,63.6,0,11.7,11.7,0,1,1,23.4,0,31.8,31.8,0,0,0,63.6,0A75.41,75.41,0,0,0,377.2,570.1Z"/><circle cx="231" cy="456.7" r="104.7"/><circle cx="523.4" cy="456.7" r="104.7"/><path d="M754.5,373.9A373.56,373.56,0,0,0,380.7,0h-6.9A373.56,373.56,0,0,0,0,373.8v6.9A373.33,373.33,0,0,0,71.8,600.9a91,91,0,0,0-20.4,57.7v1.2a91.5,91.5,0,0,0,91.4,91.4h32.5V852.5a31.75,31.75,0,0,0,31.8,31.8H547.7a31.75,31.75,0,0,0,31.8-31.8V751.2H612a91.5,91.5,0,0,0,91.4-91.4v-1.2A91.24,91.24,0,0,0,683,600.9a373.55,373.55,0,0,0,71.8-220.2v-6.8Zm-63.6,6.9a310.17,310.17,0,0,1-76.3,203.8,31.84,31.84,0,0,0,9.7,49.3,27.81,27.81,0,0,1,15.3,24.8v1.2a27.87,27.87,0,0,1-27.8,27.8H547.5a31.75,31.75,0,0,0-31.8,31.8V820.8H457.3V780.5a26.5,26.5,0,0,0-53,0v40.3H350.1V780.5a26.5,26.5,0,0,0-53,0v40.3H238.7V719.4a31.75,31.75,0,0,0-31.8-31.8H142.6a27.87,27.87,0,0,1-27.8-27.8v-1.2a27.7,27.7,0,0,1,15.3-24.8,31.84,31.84,0,0,0,9.7-49.3A310,310,0,0,1,63.5,380.7v-6.9A310.35,310.35,0,0,1,373.8,63.5h6.9A310.35,310.35,0,0,1,691,373.8v7Z"/></g></g></svg>